# xmcd
#
# Track frame offsets:
#	150
#	11673
#	23253
#	36592
#	49687
#	72908
#	86759
#	106048
#	118680
#	130480
#	141306
#	156563
#
# Disc length: 2339 seconds
#
# Revision: 1
# Processed by: cddbd v1.5.2PL0 Copyright (c) Steve Scherf et al.
# Submitted via: audiograbber 1.83.01
#
DISCID=a409210c
DTITLE=Asleep At The Wheel - Hang Up My Spurs
DYEAR=2002
DGENRE=Country
TTITLE0=Asleep At The Wheel - Hang Up My Spurs And Saddle
TTITLE1=Asleep At The Wheel - T-U-L-S-A Straight Ahead
TTITLE2=Asleep At The Wheel - Silver Lake Blues
TTITLE3=Asleep At The Wheel - I Didn't Realize
TTITLE4=Asleep At The Wheel - Milk Cow Blues
TTITLE5=Asleep At The Wheel - Beaumont Rag
TTITLE6=Asleep At The Wheel - San Antonio Rose
TTITLE7=Asleep At The Wheel - Tumbling Tumbleweeds
TTITLE8=Asleep At The Wheel - Don't The Deal Go Down
TTITLE9=Asleep At The Wheel - Bubbles In My Beer
TTITLE10=Asleep At The Wheel - Westphalia Waltz
TTITLE11=Asleep At The Wheel - Aint' Got Nothing But The Blues
EXTD=Created by the National Council for Traditional Arts, sold by Cracker Barr
EXTD=el Restaurants
EXTT0=
EXTT1=
EXTT2=
EXTT3=
EXTT4=
EXTT5=
EXTT6=
EXTT7=
EXTT8=
EXTT9=
EXTT10=
EXTT11=
PLAYORDER=
